<svg width="26" height="18" viewBox="0 0 26 18" fill="none" xmlns="http://www.w3.org/2000/svg">
<path d="M16.0379 9.04688C16.0379 10.5945 15.7143 11.9747 15.067 13.1875C14.4196 14.3929 13.497 15.3341 12.2991 16.0112C11.1012 16.6957 9.72842 17.0379 8.1808 17.0379C7.07217 17.0379 6.0119 16.8222 5 16.3906C3.9881 15.9591 3.11756 15.3787 2.38839 14.6496C1.65923 13.9204 1.07887 13.0499 0.647321 12.0379C0.215774 11.026 0 9.96577 0 8.85714C0 7.74851 0.215774 6.68824 0.647321 5.67634C1.07887 4.66443 1.65923 3.7939 2.38839 3.06473C3.11756 2.33557 3.9881 1.75521 5 1.32366C6.0119 0.892113 7.07217 0.67634 8.1808 0.67634C10.3088 0.67634 12.1354 1.39062 13.6607 2.8192L11.4397 4.95089C10.5692 4.11012 9.48289 3.68973 8.1808 3.68973C7.26562 3.68973 6.41741 3.92039 5.63616 4.3817C4.86235 4.84301 4.24851 5.47173 3.79464 6.26786C3.34077 7.05655 3.11384 7.91964 3.11384 8.85714C3.11384 9.79464 3.34077 10.6615 3.79464 11.4576C4.24851 12.2463 4.86235 12.8713 5.63616 13.3326C6.41741 13.7939 7.26562 14.0246 8.1808 14.0246C8.79836 14.0246 9.36384 13.939 9.87723 13.7679C10.3981 13.5967 10.8259 13.3847 11.1607 13.1317C11.4955 12.8713 11.7857 12.5774 12.0312 12.25C12.2842 11.9226 12.4665 11.6138 12.5781 11.3237C12.6972 11.0335 12.779 10.7582 12.8237 10.4978H8.1808V7.68527H15.904C15.9933 8.15402 16.0379 8.60789 16.0379 9.04688ZM25.7143 7.68527V10.029H23.3817V12.3616H21.0379V10.029H18.7054V7.68527H21.0379V5.35268H23.3817V7.68527H25.7143Z" fill="white"/>
</svg>
