<svg width="18" height="18" viewBox="0 0 18 18" fill="none" xmlns="http://www.w3.org/2000/svg">
<path d="M15.9933 4.56027C16.7597 5.86979 17.1429 7.30208 17.1429 8.85714C17.1429 10.4122 16.7597 11.8482 15.9933 13.1652C15.2269 14.4747 14.1853 15.5126 12.8683 16.279C11.5588 17.0454 10.1265 17.4286 8.57143 17.4286C7.74554 17.4286 6.93452 17.3095 6.13839 17.0714C6.57738 16.3795 6.86756 15.7693 7.00893 15.2411C7.07589 14.9881 7.27679 14.2031 7.61161 12.8862C7.76042 13.1763 8.03199 13.4293 8.42634 13.6451C8.82068 13.8534 9.24479 13.9576 9.69866 13.9576C10.599 13.9576 11.4025 13.7046 12.1094 13.1987C12.8162 12.6853 13.3631 11.9821 13.75 11.0893C14.1369 10.1964 14.3304 9.19196 14.3304 8.07589C14.3304 7.22768 14.1071 6.43155 13.6607 5.6875C13.2217 4.94345 12.5818 4.33705 11.7411 3.8683C10.9003 3.39955 9.95164 3.16518 8.89509 3.16518C8.11384 3.16518 7.38467 3.27307 6.70759 3.48884C6.03051 3.70461 5.45387 3.99107 4.97768 4.34821C4.50893 4.70536 4.10342 5.1183 3.76116 5.58705C3.42634 6.04836 3.17708 6.52827 3.01339 7.02679C2.85714 7.5253 2.77902 8.02381 2.77902 8.52232C2.77902 9.29613 2.92783 9.97693 3.22545 10.5647C3.52307 11.1525 3.95833 11.5655 4.53125 11.8036C4.75446 11.8929 4.89583 11.8185 4.95536 11.5804C4.97024 11.5283 5 11.4129 5.04464 11.2344C5.08929 11.0558 5.11905 10.9442 5.13393 10.8996C5.17857 10.7284 5.13765 10.5685 5.01116 10.4196C4.6317 9.96577 4.44196 9.40402 4.44196 8.73438C4.44196 7.61086 4.82887 6.64732 5.60268 5.84375C6.38393 5.03274 7.40327 4.62723 8.66071 4.62723C9.78423 4.62723 10.6585 4.93229 11.2835 5.54241C11.9159 6.15253 12.2321 6.94494 12.2321 7.91964C12.2321 9.18452 11.9754 10.2597 11.4621 11.1451C10.9561 12.0305 10.3051 12.4732 9.50893 12.4732C9.05506 12.4732 8.69048 12.3132 8.41518 11.9933C8.13988 11.6659 8.05432 11.2753 8.15848 10.8214C8.21801 10.561 8.31473 10.215 8.44866 9.78348C8.59003 9.34449 8.70164 8.96131 8.78348 8.63393C8.87277 8.29911 8.91741 8.01637 8.91741 7.78571C8.91741 7.41369 8.81696 7.10491 8.61607 6.85938C8.41518 6.61384 8.12872 6.49107 7.7567 6.49107C7.29539 6.49107 6.90476 6.70312 6.58482 7.12723C6.26488 7.55134 6.10491 8.07961 6.10491 8.71205C6.10491 9.25521 6.19792 9.70908 6.38393 10.0737L5.27902 14.7388C5.15253 15.2597 5.10417 15.9182 5.13393 16.7143C3.60119 16.0372 2.36235 14.9918 1.41741 13.5781C0.47247 12.1644 0 10.5908 0 8.85714C0 7.30208 0.383185 5.86979 1.14955 4.56027C1.91592 3.2433 2.95387 2.20164 4.26339 1.43527C5.58036 0.668899 7.01637 0.285715 8.57143 0.285715C10.1265 0.285715 11.5588 0.668899 12.8683 1.43527C14.1853 2.20164 15.2269 3.2433 15.9933 4.56027Z" fill="white"/>
</svg>
